<?xml version="1.0" encoding="UTF-8"?>

<svg viewBox="0 0 156 42" xmlns="http://www.w3.org/2000/svg">

<metadata>image/svg+xml</metadata>

<g>

<title>Bhadoo Cloud</title>

<rect x="-1" y="-1" width="158" height="44" fill="none"/>

</g>

<g>

<title>Hash Hackers</title>

<g fill="#4773d1" transform="matrix(.26458 0 0 .26458 -65.768 27.592)" text-anchor="middle">
<svg width="85" height="20" viewBox="0 0 85 20" fill="none" xmlns="http://www.w3.org/2000/svg">

<rect width="85" height="20" fill="#E5E5E5"/>

<path d="M2.44336 0.46875L5.23242 7.42969L8.02148 0.46875H9.48047V9H8.35547V5.67773L8.46094 2.0918L5.66016 9H4.79883L2.00391 2.10938L2.11523 5.67773V9H0.990234V0.46875H2.44336ZM18.0293 5.00977C18.0293 5.8457 17.8887 6.57617 17.6074 7.20117C17.3262 7.82227 16.9277 8.29688 16.4121 8.625C15.8965 8.95312 15.2949 9.11719 14.6074 9.11719C13.9355 9.11719 13.3398 8.95312 12.8203 8.625C12.3008 8.29297 11.8965 7.82227 11.6074 7.21289C11.3223 6.59961 11.1758 5.89062 11.168 5.08594V4.4707C11.168 3.65039 11.3105 2.92578 11.5957 2.29688C11.8809 1.66797 12.2832 1.1875 12.8027 0.855469C13.3262 0.519531 13.9238 0.351562 14.5957 0.351562C15.2793 0.351562 15.8809 0.517578 16.4004 0.849609C16.9238 1.17773 17.3262 1.65625 17.6074 2.28516C17.8887 2.91016 18.0293 3.63867 18.0293 4.4707V5.00977ZM16.9102 4.45898C16.9102 3.44727 16.707 2.67188 16.3008 2.13281C15.8945 1.58984 15.3262 1.31836 14.5957 1.31836C13.8848 1.31836 13.3242 1.58984 12.9141 2.13281C12.5078 2.67188 12.2988 3.42188 12.2871 4.38281V5.00977C12.2871 5.99023 12.4922 6.76172 12.9023 7.32422C13.3164 7.88281 13.8848 8.16211 14.6074 8.16211C15.334 8.16211 15.8965 7.89844 16.2949 7.37109C16.6934 6.83984 16.8984 6.08008 16.9102 5.0918V4.45898ZM22.4121 7.50586L24.8496 0.46875H26.0801L22.916 9H21.9199L18.7617 0.46875H19.9863L22.4121 7.50586ZM28.4355 9H27.3105V0.46875H28.4355V9ZM35.3203 5.05664H31.623V8.08008H35.918V9H30.498V0.46875H35.8594V1.39453H31.623V4.13672H35.3203V5.05664ZM39.832 5.19727C38.8672 4.91992 38.1641 4.58008 37.7227 4.17773C37.2852 3.77148 37.0664 3.27148 37.0664 2.67773C37.0664 2.00586 37.334 1.45117 37.8691 1.01367C38.4082 0.572266 39.1074 0.351562 39.9668 0.351562C40.5527 0.351562 41.0742 0.464844 41.5312 0.691406C41.9922 0.917969 42.3477 1.23047 42.5977 1.62891C42.8516 2.02734 42.9785 2.46289 42.9785 2.93555H41.8477C41.8477 2.41992 41.6836 2.01562 41.3555 1.72266C41.0273 1.42578 40.5645 1.27734 39.9668 1.27734C39.4121 1.27734 38.9785 1.40039 38.666 1.64648C38.3574 1.88867 38.2031 2.22656 38.2031 2.66016C38.2031 3.00781 38.3496 3.30273 38.6426 3.54492C38.9395 3.7832 39.4414 4.00195 40.1484 4.20117C40.8594 4.40039 41.4141 4.62109 41.8125 4.86328C42.2148 5.10156 42.5117 5.38086 42.7031 5.70117C42.8984 6.02148 42.9961 6.39844 42.9961 6.83203C42.9961 7.52344 42.7266 8.07812 42.1875 8.49609C41.6484 8.91016 40.9277 9.11719 40.0254 9.11719C39.4395 9.11719 38.8926 9.00586 38.3848 8.7832C37.877 8.55664 37.4844 8.24805 37.207 7.85742C36.9336 7.4668 36.7969 7.02344 36.7969 6.52734H37.9277C37.9277 7.04297 38.1172 7.45117 38.4961 7.75195C38.8789 8.04883 39.3887 8.19727 40.0254 8.19727C40.6191 8.19727 41.0742 8.07617 41.3906 7.83398C41.707 7.5918 41.8652 7.26172 41.8652 6.84375C41.8652 6.42578 41.7188 6.10352 41.4258 5.87695C41.1328 5.64648 40.6016 5.41992 39.832 5.19727Z" fill="#4200FF"/>

<path d="M48.5039 5.19727C47.5391 4.91992 46.8359 4.58008 46.3945 4.17773C45.957 3.77148 45.7383 3.27148 45.7383 2.67773C45.7383 2.00586 46.0059 1.45117 46.541 1.01367C47.0801 0.572266 47.7793 0.351562 48.6387 0.351562C49.2246 0.351562 49.7461 0.464844 50.2031 0.691406C50.6641 0.917969 51.0195 1.23047 51.2695 1.62891C51.5234 2.02734 51.6504 2.46289 51.6504 2.93555H50.5195C50.5195 2.41992 50.3555 2.01562 50.0273 1.72266C49.6992 1.42578 49.2363 1.27734 48.6387 1.27734C48.084 1.27734 47.6504 1.40039 47.3379 1.64648C47.0293 1.88867 46.875 2.22656 46.875 2.66016C46.875 3.00781 47.0215 3.30273 47.3145 3.54492C47.6113 3.7832 48.1133 4.00195 48.8203 4.20117C49.5312 4.40039 50.0859 4.62109 50.4844 4.86328C50.8867 5.10156 51.1836 5.38086 51.375 5.70117C51.5703 6.02148 51.668 6.39844 51.668 6.83203C51.668 7.52344 51.3984 8.07812 50.8594 8.49609C50.3203 8.91016 49.5996 9.11719 48.6973 9.11719C48.1113 9.11719 47.5645 9.00586 47.0566 8.7832C46.5488 8.55664 46.1562 8.24805 45.8789 7.85742C45.6055 7.4668 45.4688 7.02344 45.4688 6.52734H46.5996C46.5996 7.04297 46.7891 7.45117 47.168 7.75195C47.5508 8.04883 48.0605 8.19727 48.6973 8.19727C49.291 8.19727 49.7461 8.07617 50.0625 7.83398C50.3789 7.5918 50.5371 7.26172 50.5371 6.84375C50.5371 6.42578 50.3906 6.10352 50.0977 5.87695C49.8047 5.64648 49.2734 5.41992 48.5039 5.19727ZM59.6719 9H58.541V5.05664H54.2402V9H53.1152V0.46875H54.2402V4.13672H58.541V0.46875H59.6719V9ZM64.1074 4.75195L66.334 0.46875H67.6113L64.6699 5.81836V9H63.5449V5.81836L60.6035 0.46875H61.8926L64.1074 4.75195ZM72.873 6.77344H69.2988L68.4961 9H67.3359L70.5938 0.46875H71.5781L74.8418 9H73.6875L72.873 6.77344ZM69.6387 5.84766H72.5391L71.0859 1.85742L69.6387 5.84766ZM77.4434 0.46875L80.2324 7.42969L83.0215 0.46875H84.4805V9H83.3555V5.67773L83.4609 2.0918L80.6602 9H79.7988L77.0039 2.10938L77.1152 5.67773V9H75.9902V0.46875H77.4434Z" fill="#DB00FF"/>

<path d="M29.5566 15.7773C29.5566 14.8047 29.7871 14.0234 30.248 13.4336C30.709 12.8398 31.3125 12.543 32.0586 12.543C32.8008 12.543 33.3887 12.7969 33.8223 13.3047V10H34.9062V19H33.9102L33.8574 18.3203C33.4238 18.8516 32.8203 19.1172 32.0469 19.1172C31.3125 19.1172 30.7129 18.8164 30.248 18.2148C29.7871 17.6133 29.5566 16.8281 29.5566 15.8594V15.7773ZM30.6406 15.9004C30.6406 16.6191 30.7891 17.1816 31.0859 17.5879C31.3828 17.9941 31.793 18.1973 32.3164 18.1973C33.0039 18.1973 33.5059 17.8887 33.8223 17.2715V14.3594C33.498 13.7617 33 13.4629 32.3281 13.4629C31.7969 13.4629 31.3828 13.668 31.0859 14.0781C30.7891 14.4883 30.6406 15.0957 30.6406 15.9004ZM39.6582 13.6328C39.4941 13.6055 39.3164 13.5918 39.125 13.5918C38.4141 13.5918 37.9316 13.8945 37.6777 14.5V19H36.5938V12.6602H37.6484L37.666 13.3926C38.0215 12.8262 38.5254 12.543 39.1777 12.543C39.3887 12.543 39.5488 12.5703 39.6582 12.625V13.6328ZM41.8379 19H40.7539V12.6602H41.8379V19ZM40.666 10.9785C40.666 10.8027 40.7188 10.6543 40.8242 10.5332C40.9336 10.4121 41.0938 10.3516 41.3047 10.3516C41.5156 10.3516 41.6758 10.4121 41.7852 10.5332C41.8945 10.6543 41.9492 10.8027 41.9492 10.9785C41.9492 11.1543 41.8945 11.3008 41.7852 11.418C41.6758 11.5352 41.5156 11.5938 41.3047 11.5938C41.0938 11.5938 40.9336 11.5352 40.8242 11.418C40.7188 11.3008 40.666 11.1543 40.666 10.9785ZM45.6699 17.5293L47.2402 12.6602H48.3477L46.0742 19H45.248L42.9512 12.6602H44.0586L45.6699 17.5293ZM51.9395 19.1172C51.0801 19.1172 50.3809 18.8359 49.8418 18.2734C49.3027 17.707 49.0332 16.9512 49.0332 16.0059V15.8066C49.0332 15.1777 49.1523 14.6172 49.3906 14.125C49.6328 13.6289 49.9688 13.2422 50.3984 12.9648C50.832 12.6836 51.3008 12.543 51.8047 12.543C52.6289 12.543 53.2695 12.8145 53.7266 13.3574C54.1836 13.9004 54.4121 14.6777 54.4121 15.6895V16.1406H50.1172C50.1328 16.7656 50.3145 17.2715 50.6621 17.6582C51.0137 18.041 51.459 18.2324 51.998 18.2324C52.3809 18.2324 52.7051 18.1543 52.9707 17.998C53.2363 17.8418 53.4688 17.6348 53.668 17.377L54.3301 17.8926C53.7988 18.709 53.002 19.1172 51.9395 19.1172ZM51.8047 13.4336C51.3672 13.4336 51 13.5938 50.7031 13.9141C50.4062 14.2305 50.2227 14.6758 50.1523 15.25H53.3281V15.168C53.2969 14.6172 53.1484 14.1914 52.8828 13.8906C52.6172 13.5859 52.2578 13.4336 51.8047 13.4336Z" fill="black"/>

<path d="M57.998 19H56.9141V12.6602H57.998V19ZM56.8262 10.9785C56.8262 10.8027 56.8789 10.6543 56.9844 10.5332C57.0938 10.4121 57.2539 10.3516 57.4648 10.3516C57.6758 10.3516 57.8359 10.4121 57.9453 10.5332C58.0547 10.6543 58.1094 10.8027 58.1094 10.9785C58.1094 11.1543 58.0547 11.3008 57.9453 11.418C57.8359 11.5352 57.6758 11.5938 57.4648 11.5938C57.2539 11.5938 57.0938 11.5352 56.9844 11.418C56.8789 11.3008 56.8262 11.1543 56.8262 10.9785ZM60.7637 12.6602L60.7988 13.457C61.2832 12.8477 61.916 12.543 62.6973 12.543C64.0371 12.543 64.7129 13.2988 64.7246 14.8105V19H63.6406V14.8047C63.6367 14.3477 63.5312 14.0098 63.3242 13.791C63.1211 13.5723 62.8027 13.4629 62.3691 13.4629C62.0176 13.4629 61.709 13.5566 61.4434 13.7441C61.1777 13.9316 60.9707 14.1777 60.8223 14.4824V19H59.7383V12.6602H60.7637ZM66.0957 15.7773C66.0957 14.8047 66.3262 14.0234 66.7871 13.4336C67.248 12.8398 67.8516 12.543 68.5977 12.543C69.3398 12.543 69.9277 12.7969 70.3613 13.3047V10H71.4453V19H70.4492L70.3965 18.3203C69.9629 18.8516 69.3594 19.1172 68.5859 19.1172C67.8516 19.1172 67.252 18.8164 66.7871 18.2148C66.3262 17.6133 66.0957 16.8281 66.0957 15.8594V15.7773ZM67.1797 15.9004C67.1797 16.6191 67.3281 17.1816 67.625 17.5879C67.9219 17.9941 68.332 18.1973 68.8555 18.1973C69.543 18.1973 70.0449 17.8887 70.3613 17.2715V14.3594C70.0371 13.7617 69.5391 13.4629 68.8672 13.4629C68.3359 13.4629 67.9219 13.668 67.625 14.0781C67.3281 14.4883 67.1797 15.0957 67.1797 15.9004ZM75.7637 19.1172C74.9043 19.1172 74.2051 18.8359 73.666 18.2734C73.127 17.707 72.8574 16.9512 72.8574 16.0059V15.8066C72.8574 15.1777 72.9766 14.6172 73.2148 14.125C73.457 13.6289 73.793 13.2422 74.2227 12.9648C74.6562 12.6836 75.125 12.543 75.6289 12.543C76.4531 12.543 77.0938 12.8145 77.5508 13.3574C78.0078 13.9004 78.2363 14.6777 78.2363 15.6895V16.1406H73.9414C73.957 16.7656 74.1387 17.2715 74.4863 17.6582C74.8379 18.041 75.2832 18.2324 75.8223 18.2324C76.2051 18.2324 76.5293 18.1543 76.7949 17.998C77.0605 17.8418 77.293 17.6348 77.4922 17.377L78.1543 17.8926C77.623 18.709 76.8262 19.1172 75.7637 19.1172ZM75.6289 13.4336C75.1914 13.4336 74.8242 13.5938 74.5273 13.9141C74.2305 14.2305 74.0469 14.6758 73.9766 15.25H77.1523V15.168C77.1211 14.6172 76.9727 14.1914 76.707 13.8906C76.4414 13.5859 76.082 13.4336 75.6289 13.4336ZM81.623 14.9746L83.0293 12.6602H84.2949L82.2207 15.7949L84.3594 19H83.1055L81.6406 16.627L80.1758 19H78.916L81.0547 15.7949L78.9805 12.6602H80.2344L81.623 14.9746Z" fill="black"/>

</svg>

